<?xml version="1.0" encoding="UTF-8" standalone="no"?>
<!-- Created with Inkscape (http://www.inkscape.org/) -->

<svg
   xmlns:dc="http://purl.org/dc/elements/1.1/"
   xmlns:cc="http://creativecommons.org/ns#"
   xmlns:rdf="http://www.w3.org/1999/02/22-rdf-syntax-ns#"
   xmlns:svg="http://www.w3.org/2000/svg"
   xmlns="http://www.w3.org/2000/svg"
   xmlns:sodipodi="http://sodipodi.sourceforge.net/DTD/sodipodi-0.dtd"
   xmlns:inkscape="http://www.inkscape.org/namespaces/inkscape"
   version="1.1"
   id="svg10"
   xml:space="preserve"
   width="532.48694"
   height="285.89841"
   viewBox="0 0 532.48693 285.89841"
   sodipodi:docname="HFunes - Marca SVG.svg"
   inkscape:version="0.92.3 (2405546, 2018-03-11)"><metadata
     id="metadata16"><rdf:RDF><cc:Work
         rdf:about=""><dc:format>image/svg+xml</dc:format><dc:type
           rdf:resource="http://purl.org/dc/dcmitype/StillImage" /><dc:title></dc:title></cc:Work></rdf:RDF></metadata><defs
     id="defs14"><clipPath
       clipPathUnits="userSpaceOnUse"
       id="clipPath26"><path
         d="M 0,595.276 H 841.89 V 0 H 0 Z"
         id="path24"
         inkscape:connector-curvature="0" /></clipPath></defs><sodipodi:namedview
     pagecolor="#ffffff"
     bordercolor="#666666"
     borderopacity="1"
     objecttolerance="10"
     gridtolerance="10"
     guidetolerance="10"
     inkscape:pageopacity="0"
     inkscape:pageshadow="2"
     inkscape:window-width="1600"
     inkscape:window-height="837"
     id="namedview12"
     showgrid="false"
     fit-margin-top="0"
     fit-margin-left="0"
     fit-margin-right="0"
     fit-margin-bottom="0"
     inkscape:zoom="0.84414622"
     inkscape:cx="255.69108"
     inkscape:cy="140.81999"
     inkscape:window-x="-8"
     inkscape:window-y="-8"
     inkscape:window-maximized="1"
     inkscape:current-layer="g18" /><g
     id="g18"
     inkscape:groupmode="layer"
     inkscape:label="HFunes - Marca PDF"
     transform="matrix(1.3333333,0,0,-1.3333333,-305.56893,541.92905)"><g
       id="g20"><g
         id="g22"
         clip-path="url(#clipPath26)"><g
           id="g28"
           transform="translate(284.6226,202.21)"><path
             d="M 0,0 C 0.564,-0.264 1.032,-0.618 1.402,-1.062 1.772,-1.507 2,-1.993 2.083,-2.521 2.092,-2.558 2.097,-2.604 2.097,-2.659 2.097,-2.706 2.088,-2.735 2.069,-2.75 2.051,-2.764 2.014,-2.775 1.958,-2.784 L 0.666,-2.867 H 0.625 c -0.056,0 -0.098,0.051 -0.125,0.152 -0.13,0.574 -0.392,1.032 -0.785,1.375 -0.394,0.343 -0.882,0.514 -1.465,0.514 -0.898,0 -1.581,-0.336 -2.049,-1.007 -0.468,-0.671 -0.701,-1.688 -0.701,-3.049 0,-1.351 0.233,-2.36 0.701,-3.027 0.468,-0.667 1.169,-1 2.105,-1 0.629,0 1.154,0.153 1.576,0.458 0.421,0.305 0.762,0.797 1.02,1.472 0.009,0.065 0.079,0.088 0.208,0.07 L 2.097,-7.146 C 2.181,-7.164 2.213,-7.242 2.194,-7.381 2.064,-7.826 1.831,-8.261 1.493,-8.687 1.154,-9.112 0.708,-9.47 0.152,-9.756 c -0.555,-0.287 -1.194,-0.431 -1.916,-0.431 -0.926,0 -1.727,0.217 -2.403,0.653 -0.676,0.435 -1.194,1.054 -1.556,1.854 -0.36,0.801 -0.541,1.739 -0.541,2.813 0,1.083 0.178,2.02 0.535,2.811 0.356,0.792 0.87,1.399 1.542,1.821 0.67,0.421 1.464,0.631 2.381,0.631 C -1.167,0.396 -0.565,0.264 0,0"
             style="fill:#191217;fill-opacity:1;fill-rule:nonzero;stroke:none"
             id="path30"
             inkscape:connector-curvature="0" /></g><g
           id="g32"
           transform="translate(294.8511,194.2315)"><path
             d="m 0,0 c 0.449,0.648 0.674,1.662 0.674,3.042 0,1.397 -0.228,2.433 -0.681,3.104 -0.454,0.67 -1.139,1.006 -2.056,1.006 -0.925,0 -1.62,-0.336 -2.083,-1.006 C -4.608,5.475 -4.84,4.439 -4.84,3.042 c 0,-1.371 0.23,-2.382 0.688,-3.035 0.458,-0.653 1.155,-0.979 2.089,-0.979 0.926,0 1.614,0.324 2.063,0.972 m -4.492,-1.59 c -0.677,0.411 -1.195,1.011 -1.556,1.798 -0.361,0.787 -0.542,1.731 -0.542,2.834 0,1.11 0.183,2.066 0.549,2.867 0.365,0.801 0.889,1.412 1.569,1.834 0.681,0.421 1.484,0.632 2.409,0.632 0.917,0 1.711,-0.211 2.382,-0.632 C 0.991,7.321 1.509,6.713 1.875,5.916 2.241,5.12 2.424,4.166 2.424,3.056 2.424,1.953 2.243,1.009 1.882,0.223 1.521,-0.564 1.002,-1.167 0.326,-1.583 -0.35,-2 -1.15,-2.208 -2.076,-2.208 c -0.936,0 -1.741,0.206 -2.416,0.618"
             style="fill:#191217;fill-opacity:1;fill-rule:nonzero;stroke:none"
             id="path34"
             inkscape:connector-curvature="0" /></g><g
           id="g36"
           transform="translate(307.232,202.4668)"><path
             d="m 0,0 c 0.102,0 0.152,-0.06 0.152,-0.181 v -9.943 c 0,-0.056 -0.018,-0.1 -0.055,-0.132 -0.037,-0.033 -0.088,-0.049 -0.153,-0.049 h -0.903 c -0.074,0 -0.132,0.007 -0.173,0.021 -0.042,0.014 -0.086,0.054 -0.132,0.118 l -5.069,7.277 c -0.037,0.066 -0.072,0.093 -0.104,0.084 -0.033,-0.009 -0.049,-0.042 -0.049,-0.097 v -7.208 c 0,-0.13 -0.075,-0.195 -0.222,-0.195 h -0.986 c -0.149,0 -0.223,0.065 -0.223,0.195 v 9.902 c 0,0.074 0.017,0.127 0.049,0.16 C -7.836,-0.016 -7.782,0 -7.708,0 h 1.083 c 0.083,0 0.146,-0.012 0.188,-0.034 0.041,-0.024 0.081,-0.068 0.118,-0.132 l 4.861,-7.042 c 0.055,-0.064 0.097,-0.097 0.125,-0.097 0.055,0 0.083,0.042 0.083,0.125 v 6.986 c 0,0.13 0.064,0.194 0.194,0.194 z"
             style="fill:#191217;fill-opacity:1;fill-rule:nonzero;stroke:none"
             id="path38"
             inkscape:connector-curvature="0" /></g><g
           id="g40"
           transform="translate(314.5787,201.1065)"><path
             d="m 0,0 c -0.361,0.176 -0.801,0.264 -1.319,0.264 -0.658,0 -1.169,-0.137 -1.535,-0.41 -0.366,-0.273 -0.548,-0.651 -0.548,-1.132 0,-0.639 0.453,-1.111 1.361,-1.416 l 2.083,-0.654 c 1.574,-0.49 2.361,-1.416 2.361,-2.777 0,-0.917 -0.34,-1.639 -1.021,-2.167 -0.681,-0.527 -1.613,-0.791 -2.798,-0.791 -0.88,0 -1.658,0.152 -2.334,0.458 -0.676,0.306 -1.198,0.741 -1.569,1.306 -0.037,0.074 -0.055,0.12 -0.055,0.138 0,0.075 0.046,0.144 0.139,0.208 l 0.68,0.473 c 0.083,0.056 0.158,0.083 0.222,0.083 0.064,0 0.12,-0.032 0.167,-0.097 0.379,-0.491 0.757,-0.838 1.132,-1.042 0.375,-0.204 0.882,-0.305 1.52,-0.305 0.723,0 1.287,0.125 1.695,0.375 0.407,0.25 0.611,0.638 0.611,1.167 0,0.333 -0.105,0.613 -0.313,0.84 -0.208,0.226 -0.585,0.437 -1.131,0.631 l -2.098,0.681 c -0.75,0.25 -1.312,0.616 -1.687,1.098 -0.375,0.481 -0.562,1.018 -0.562,1.61 0,0.584 0.152,1.1 0.458,1.549 0.306,0.449 0.733,0.796 1.284,1.042 0.551,0.245 1.188,0.368 1.91,0.368 0.713,0 1.359,-0.125 1.938,-0.375 C 1.169,0.875 1.644,0.532 2.014,0.097 2.061,0.051 2.083,0 2.083,-0.056 2.083,-0.111 2.061,-0.158 2.014,-0.194 L 1.223,-0.806 C 1.186,-0.834 1.148,-0.848 1.111,-0.848 1.084,-0.848 1.028,-0.806 0.944,-0.723 0.676,-0.417 0.361,-0.177 0,0"
             style="fill:#191217;fill-opacity:1;fill-rule:nonzero;stroke:none"
             id="path42"
             inkscape:connector-curvature="0" /></g><g
           id="g44"
           transform="translate(325.481,192.9053)"><path
             d="m 0,0 c -0.648,-0.588 -1.606,-0.882 -2.875,-0.882 -1.343,0 -2.319,0.321 -2.931,0.965 -0.611,0.644 -0.916,1.632 -0.916,2.965 V 9.34 c 0,0.147 0.06,0.222 0.18,0.222 h 1.319 c 0.121,0 0.181,-0.07 0.181,-0.208 V 2.757 c 0,-1.593 0.764,-2.389 2.292,-2.389 1.556,0 2.333,0.81 2.333,2.43 v 6.556 c 0,0.138 0.056,0.208 0.167,0.208 h 1.056 c 0.11,0 0.166,-0.065 0.166,-0.195 V 2.813 C 0.972,1.525 0.647,0.588 0,0"
             style="fill:#191217;fill-opacity:1;fill-rule:nonzero;stroke:none"
             id="path46"
             inkscape:connector-curvature="0" /></g><g
           id="g48"
           transform="translate(328.981,202.4668)"><path
             d="m 0,0 h 1.305 c 0.121,0 0.18,-0.069 0.18,-0.208 v -8.68 c 0,-0.055 0.012,-0.095 0.036,-0.118 0.022,-0.023 0.057,-0.035 0.104,-0.035 h 4.693 c 0.066,0 0.114,-0.012 0.147,-0.034 0.032,-0.024 0.048,-0.068 0.048,-0.132 v -0.917 c 0,-0.12 -0.065,-0.181 -0.195,-0.181 H 0.041 c -0.083,0 -0.144,0.019 -0.181,0.056 -0.037,0.037 -0.055,0.093 -0.055,0.167 v 9.874 C -0.195,-0.069 -0.13,0 0,0"
             style="fill:#191217;fill-opacity:1;fill-rule:nonzero;stroke:none"
             id="path50"
             inkscape:connector-curvature="0" /></g><g
           id="g52"
           transform="translate(335.2447,202.2725)"><path
             d="M 0,0 C 0,0.13 0.069,0.194 0.208,0.194 H 7.833 C 7.962,0.194 8.027,0.13 8.027,0 V -0.889 C 8.027,-1 7.962,-1.056 7.833,-1.056 H 5.083 C 5.027,-1.056 4.99,-1.064 4.972,-1.083 4.953,-1.102 4.944,-1.134 4.944,-1.181 v -8.721 c 0,-0.139 -0.065,-0.208 -0.195,-0.208 H 3.444 c -0.121,0 -0.18,0.064 -0.18,0.194 v 8.708 c 0,0.064 -0.012,0.106 -0.035,0.125 -0.024,0.019 -0.063,0.027 -0.119,0.027 H 0.194 C 0.064,-1.056 0,-1 0,-0.889 Z"
             style="fill:#191217;fill-opacity:1;fill-rule:nonzero;stroke:none"
             id="path54"
             inkscape:connector-curvature="0" /></g><g
           id="g56"
           transform="translate(350.5005,194.2315)"><path
             d="m 0,0 c 0.449,0.648 0.674,1.662 0.674,3.042 0,1.397 -0.228,2.433 -0.681,3.104 -0.454,0.67 -1.139,1.006 -2.056,1.006 -0.925,0 -1.62,-0.336 -2.083,-1.006 C -4.608,5.475 -4.84,4.439 -4.84,3.042 c 0,-1.371 0.23,-2.382 0.688,-3.035 0.458,-0.653 1.155,-0.979 2.089,-0.979 0.926,0 1.614,0.324 2.063,0.972 m -4.492,-1.59 c -0.677,0.411 -1.195,1.011 -1.556,1.798 -0.361,0.787 -0.542,1.731 -0.542,2.834 0,1.11 0.183,2.066 0.549,2.867 0.365,0.801 0.889,1.412 1.569,1.834 0.681,0.421 1.484,0.632 2.409,0.632 0.917,0 1.711,-0.211 2.382,-0.632 C 0.991,7.321 1.509,6.713 1.875,5.916 2.241,5.12 2.424,4.166 2.424,3.056 2.424,1.953 2.243,1.009 1.882,0.223 1.521,-0.564 1.002,-1.167 0.326,-1.583 -0.35,-2 -1.15,-2.208 -2.076,-2.208 c -0.936,0 -1.741,0.206 -2.416,0.618"
             style="fill:#191217;fill-opacity:1;fill-rule:nonzero;stroke:none"
             id="path58"
             inkscape:connector-curvature="0" /></g><g
           id="g60"
           transform="translate(360.5005,198.3428)"><path
             d="m 0,0 c 0.365,0.277 0.549,0.703 0.549,1.277 0,0.556 -0.17,0.972 -0.508,1.25 -0.338,0.278 -0.826,0.417 -1.465,0.417 H -3.632 C -3.715,2.944 -3.773,2.933 -3.806,2.909 -3.838,2.886 -3.854,2.842 -3.854,2.777 v -3 c 0,-0.13 0.05,-0.194 0.153,-0.194 h 2.041 c 0.741,0 1.294,0.139 1.66,0.417 M 2.173,-6 C 2.173,-6.047 2.154,-6.088 2.118,-6.125 2.081,-6.162 2.034,-6.181 1.979,-6.181 H 0.632 c -0.111,0 -0.195,0.065 -0.25,0.195 l -1.694,4.221 c -0.038,0.112 -0.154,0.167 -0.348,0.167 h -2.028 c -0.111,0 -0.166,-0.05 -0.166,-0.152 v -4.181 c 0,-0.092 -0.021,-0.157 -0.063,-0.194 -0.041,-0.037 -0.108,-0.056 -0.201,-0.056 h -1.181 c -0.083,0 -0.143,0.019 -0.18,0.056 -0.038,0.037 -0.056,0.093 -0.056,0.167 v 9.874 c 0,0.074 0.014,0.127 0.042,0.16 0.028,0.032 0.079,0.048 0.153,0.048 h 4.014 C -0.179,4.124 0.71,3.891 1.34,3.423 1.97,2.955 2.284,2.282 2.284,1.402 2.284,0.689 2.092,0.105 1.708,-0.348 1.323,-0.802 0.85,-1.116 0.284,-1.292 0.229,-1.311 0.21,-1.366 0.229,-1.459 l 1.917,-4.43 C 2.164,-5.944 2.173,-5.981 2.173,-6"
             style="fill:#191217;fill-opacity:1;fill-rule:nonzero;stroke:none"
             id="path62"
             inkscape:connector-curvature="0" /></g><g
           id="g64"
           transform="translate(366.2427,202.4668)"><path
             d="m 0,0 c 0.121,0 0.181,-0.069 0.181,-0.208 v -9.833 c 0,-0.102 -0.021,-0.171 -0.063,-0.208 C 0.077,-10.286 0,-10.305 -0.11,-10.305 h -1.14 c -0.092,0 -0.157,0.016 -0.194,0.049 -0.037,0.032 -0.056,0.09 -0.056,0.174 v 9.874 C -1.5,-0.069 -1.435,0 -1.305,0 Z M 1.236,2.25 C 1.255,2.194 1.265,2.162 1.265,2.153 1.265,2.079 1.199,2.019 1.069,1.973 L -2.11,1.015 C -2.139,1.005 -2.171,1 -2.208,1 -2.282,1 -2.333,1.047 -2.36,1.14 L -2.499,1.5 c -0.01,0.019 -0.015,0.047 -0.015,0.084 0,0.083 0.029,0.129 0.084,0.139 L 0.806,3.069 0.861,3.084 C 0.926,3.084 0.973,3.047 1,2.973 Z"
             style="fill:#191217;fill-opacity:1;fill-rule:nonzero;stroke:none"
             id="path66"
             inkscape:connector-curvature="0" /></g><g
           id="g68"
           transform="translate(374.1861,196.2315)"><path
             d="M 0,0 C 0.064,0 0.104,0.016 0.118,0.049 0.132,0.081 0.13,0.13 0.111,0.194 l -1.5,4.166 c -0.027,0.066 -0.06,0.098 -0.097,0.098 -0.037,0 -0.07,-0.037 -0.097,-0.111 L -3.125,0.181 -3.139,0.097 C -3.139,0.032 -3.097,0 -3.014,0 Z m -5.958,-3.902 0.028,0.125 3.541,9.791 c 0.028,0.083 0.065,0.14 0.112,0.173 0.046,0.033 0.111,0.048 0.194,0.048 h 1.402 c 0.176,0 0.292,-0.078 0.348,-0.235 l 3.514,-9.792 c 0.008,-0.019 0.013,-0.051 0.013,-0.097 0,-0.12 -0.05,-0.18 -0.152,-0.18 H 1.723 c -0.121,0 -0.2,0.055 -0.237,0.167 l -0.888,2.471 c -0.019,0.046 -0.037,0.079 -0.056,0.098 -0.019,0.019 -0.056,0.027 -0.111,0.027 h -3.847 c -0.084,0 -0.14,-0.037 -0.167,-0.111 l -0.902,-2.514 c -0.029,-0.092 -0.108,-0.138 -0.237,-0.138 h -1.069 c -0.111,0 -0.167,0.055 -0.167,0.167"
             style="fill:#191217;fill-opacity:1;fill-rule:nonzero;stroke:none"
             id="path70"
             inkscape:connector-curvature="0" /></g><g
           id="g72"
           transform="translate(389.9908,202.4043)"><path
             d="m 0,0 c 0.028,-0.041 0.023,-0.095 -0.014,-0.159 l -3.292,-5.472 c -0.037,-0.065 -0.062,-0.13 -0.076,-0.195 -0.014,-0.065 -0.02,-0.18 -0.02,-0.347 v -3.792 c 0,-0.101 -0.024,-0.173 -0.07,-0.215 -0.047,-0.042 -0.125,-0.062 -0.236,-0.062 h -1.125 c -0.157,0 -0.236,0.078 -0.236,0.236 v 3.819 c 0,0.092 -0.009,0.165 -0.028,0.215 -0.018,0.051 -0.05,0.118 -0.097,0.201 l -3.333,5.57 c -0.028,0.046 -0.042,0.088 -0.042,0.125 0,0.093 0.07,0.138 0.209,0.138 h 1.333 c 0.092,0 0.16,-0.013 0.201,-0.041 0.042,-0.028 0.086,-0.079 0.132,-0.153 l 2.417,-4.18 c 0.055,-0.102 0.106,-0.153 0.152,-0.153 0.056,0 0.103,0.042 0.14,0.125 l 2.402,4.208 c 0.037,0.084 0.076,0.137 0.118,0.16 0.041,0.023 0.109,0.034 0.201,0.034 h 1.112 C -0.079,0.062 -0.027,0.042 0,0"
             style="fill:#191217;fill-opacity:1;fill-rule:nonzero;stroke:none"
             id="path74"
             inkscape:connector-curvature="0" /></g><g
           id="g76"
           transform="translate(396.3795,201.0372)"><path
             d="m 0,0 v -7.486 c 0,-0.065 0.012,-0.109 0.035,-0.132 0.023,-0.024 0.068,-0.035 0.132,-0.035 h 0.458 c 0.954,0 1.727,0.13 2.319,0.389 0.593,0.259 1.033,0.681 1.32,1.264 0.287,0.583 0.43,1.356 0.43,2.319 0,0.945 -0.132,1.692 -0.395,2.244 -0.264,0.55 -0.665,0.948 -1.201,1.194 C 2.561,0.002 1.852,0.143 0.973,0.18 L 0.111,0.194 C 0.037,0.194 0,0.129 0,0 M 1.028,1.416 C 2.889,1.379 4.257,0.935 5.132,0.083 6.007,-0.77 6.444,-2.019 6.444,-3.667 6.444,-5.371 5.981,-6.665 5.056,-7.549 4.13,-8.433 2.745,-8.875 0.903,-8.875 h -2.334 c -0.166,0 -0.25,0.083 -0.25,0.25 v 9.847 c 0,0.074 0.019,0.127 0.056,0.16 0.037,0.032 0.098,0.048 0.181,0.048 1.111,0 1.935,-0.005 2.472,-0.014"
             style="fill:#191217;fill-opacity:1;fill-rule:nonzero;stroke:none"
             id="path78"
             inkscape:connector-curvature="0" /></g><g
           id="g80"
           transform="translate(404.8922,202.419)"><path
             d="m 0,0 c 0.028,0.032 0.079,0.048 0.153,0.048 h 6.472 c 0.111,0 0.166,-0.06 0.166,-0.181 L 6.777,-1.007 c 0,-0.139 -0.069,-0.209 -0.208,-0.209 H 1.848 c -0.14,0 -0.209,-0.06 -0.209,-0.18 v -2.861 c 0,-0.121 0.06,-0.18 0.18,-0.18 h 3.389 c 0.12,0 0.181,-0.056 0.181,-0.167 v -0.931 c 0,-0.102 -0.061,-0.152 -0.181,-0.152 H 1.806 c -0.112,0 -0.167,-0.051 -0.167,-0.154 V -8.84 c 0,-0.056 0.011,-0.096 0.035,-0.118 0.022,-0.023 0.057,-0.035 0.104,-0.035 h 4.986 c 0.074,0 0.125,-0.012 0.152,-0.034 0.028,-0.024 0.042,-0.068 0.042,-0.132 v -0.917 c 0,-0.12 -0.064,-0.181 -0.194,-0.181 h -6.57 c -0.092,0 -0.155,0.016 -0.187,0.049 -0.032,0.032 -0.049,0.09 -0.049,0.174 v 9.874 c 0,0.074 0.015,0.127 0.042,0.16"
             style="fill:#191217;fill-opacity:1;fill-rule:nonzero;stroke:none"
             id="path82"
             inkscape:connector-curvature="0" /></g><g
           id="g84"
           transform="translate(418.4332,201.1065)"><path
             d="m 0,0 c -0.361,0.176 -0.801,0.264 -1.319,0.264 -0.658,0 -1.169,-0.137 -1.535,-0.41 -0.366,-0.273 -0.548,-0.651 -0.548,-1.132 0,-0.639 0.453,-1.111 1.361,-1.416 l 2.083,-0.654 c 1.574,-0.49 2.361,-1.416 2.361,-2.777 0,-0.917 -0.34,-1.639 -1.021,-2.167 -0.681,-0.527 -1.613,-0.791 -2.798,-0.791 -0.88,0 -1.658,0.152 -2.334,0.458 -0.676,0.306 -1.198,0.741 -1.569,1.306 -0.037,0.074 -0.055,0.12 -0.055,0.138 0,0.075 0.046,0.144 0.139,0.208 l 0.68,0.473 c 0.083,0.056 0.158,0.083 0.222,0.083 0.064,0 0.12,-0.032 0.167,-0.097 0.379,-0.491 0.757,-0.838 1.132,-1.042 0.375,-0.204 0.882,-0.305 1.52,-0.305 0.723,0 1.287,0.125 1.695,0.375 0.407,0.25 0.611,0.638 0.611,1.167 0,0.333 -0.105,0.613 -0.313,0.84 -0.208,0.226 -0.585,0.437 -1.131,0.631 l -2.098,0.681 c -0.75,0.25 -1.312,0.616 -1.687,1.098 -0.375,0.481 -0.562,1.018 -0.562,1.61 0,0.584 0.152,1.1 0.458,1.549 0.306,0.449 0.733,0.796 1.284,1.042 0.551,0.245 1.188,0.368 1.91,0.368 0.713,0 1.359,-0.125 1.938,-0.375 C 1.169,0.875 1.644,0.532 2.014,0.097 2.061,0.051 2.083,0 2.083,-0.056 2.083,-0.111 2.061,-0.158 2.014,-0.194 L 1.223,-0.806 C 1.186,-0.834 1.148,-0.848 1.111,-0.848 1.084,-0.848 1.028,-0.806 0.944,-0.723 0.676,-0.417 0.361,-0.177 0,0"
             style="fill:#191217;fill-opacity:1;fill-rule:nonzero;stroke:none"
             id="path86"
             inkscape:connector-curvature="0" /></g><g
           id="g88"
           transform="translate(428.0435,196.2315)"><path
             d="M 0,0 C 0.064,0 0.104,0.016 0.118,0.049 0.132,0.081 0.13,0.13 0.111,0.194 l -1.5,4.166 c -0.027,0.066 -0.06,0.098 -0.097,0.098 -0.037,0 -0.07,-0.037 -0.097,-0.111 L -3.125,0.181 -3.139,0.097 C -3.139,0.032 -3.097,0 -3.014,0 Z m -5.958,-3.902 0.028,0.125 3.541,9.791 c 0.028,0.083 0.065,0.14 0.112,0.173 0.046,0.033 0.111,0.048 0.194,0.048 h 1.402 c 0.176,0 0.292,-0.078 0.348,-0.235 l 3.514,-9.792 c 0.008,-0.019 0.013,-0.051 0.013,-0.097 0,-0.12 -0.05,-0.18 -0.152,-0.18 H 1.723 c -0.121,0 -0.2,0.055 -0.237,0.167 l -0.888,2.471 c -0.019,0.046 -0.037,0.079 -0.056,0.098 -0.019,0.019 -0.056,0.027 -0.111,0.027 h -3.847 c -0.084,0 -0.14,-0.037 -0.167,-0.111 l -0.902,-2.514 c -0.029,-0.092 -0.108,-0.138 -0.237,-0.138 h -1.069 c -0.111,0 -0.167,0.055 -0.167,0.167"
             style="fill:#191217;fill-opacity:1;fill-rule:nonzero;stroke:none"
             id="path90"
             inkscape:connector-curvature="0" /></g><g
           id="g92"
           transform="translate(438.565,198.3428)"><path
             d="m 0,0 c 0.365,0.277 0.549,0.703 0.549,1.277 0,0.556 -0.17,0.972 -0.508,1.25 -0.338,0.278 -0.826,0.417 -1.465,0.417 H -3.632 C -3.715,2.944 -3.773,2.933 -3.806,2.909 -3.838,2.886 -3.854,2.842 -3.854,2.777 v -3 c 0,-0.13 0.05,-0.194 0.153,-0.194 h 2.041 c 0.741,0 1.294,0.139 1.66,0.417 M 2.173,-6 C 2.173,-6.047 2.154,-6.088 2.118,-6.125 2.081,-6.162 2.034,-6.181 1.979,-6.181 H 0.632 c -0.111,0 -0.195,0.065 -0.25,0.195 l -1.694,4.221 c -0.038,0.112 -0.154,0.167 -0.348,0.167 h -2.028 c -0.111,0 -0.166,-0.05 -0.166,-0.152 v -4.181 c 0,-0.092 -0.021,-0.157 -0.063,-0.194 -0.041,-0.037 -0.108,-0.056 -0.201,-0.056 h -1.181 c -0.083,0 -0.143,0.019 -0.18,0.056 -0.038,0.037 -0.056,0.093 -0.056,0.167 v 9.874 c 0,0.074 0.014,0.127 0.042,0.16 0.028,0.032 0.079,0.048 0.153,0.048 h 4.014 C -0.179,4.124 0.71,3.891 1.34,3.423 1.97,2.955 2.284,2.282 2.284,1.402 2.284,0.689 2.092,0.105 1.708,-0.348 1.323,-0.802 0.85,-1.116 0.284,-1.292 0.229,-1.311 0.21,-1.366 0.229,-1.459 l 1.917,-4.43 C 2.164,-5.944 2.173,-5.981 2.173,-6"
             style="fill:#191217;fill-opacity:1;fill-rule:nonzero;stroke:none"
             id="path94"
             inkscape:connector-curvature="0" /></g><g
           id="g96"
           transform="translate(448.3414,198.3428)"><path
             d="m 0,0 c 0.365,0.277 0.549,0.703 0.549,1.277 0,0.556 -0.17,0.972 -0.508,1.25 -0.338,0.278 -0.826,0.417 -1.465,0.417 H -3.632 C -3.715,2.944 -3.773,2.933 -3.806,2.909 -3.838,2.886 -3.854,2.842 -3.854,2.777 v -3 c 0,-0.13 0.05,-0.194 0.153,-0.194 h 2.041 c 0.741,0 1.294,0.139 1.66,0.417 M 2.173,-6 C 2.173,-6.047 2.154,-6.088 2.118,-6.125 2.081,-6.162 2.034,-6.181 1.979,-6.181 H 0.632 c -0.111,0 -0.195,0.065 -0.25,0.195 l -1.694,4.221 c -0.038,0.112 -0.154,0.167 -0.348,0.167 h -2.028 c -0.111,0 -0.166,-0.05 -0.166,-0.152 v -4.181 c 0,-0.092 -0.021,-0.157 -0.063,-0.194 -0.041,-0.037 -0.108,-0.056 -0.201,-0.056 h -1.181 c -0.083,0 -0.143,0.019 -0.18,0.056 -0.038,0.037 -0.056,0.093 -0.056,0.167 v 9.874 c 0,0.074 0.014,0.127 0.042,0.16 0.028,0.032 0.079,0.048 0.153,0.048 h 4.014 C -0.179,4.124 0.71,3.891 1.34,3.423 1.97,2.955 2.284,2.282 2.284,1.402 2.284,0.689 2.092,0.105 1.708,-0.348 1.323,-0.802 0.85,-1.116 0.284,-1.292 0.229,-1.311 0.21,-1.366 0.229,-1.459 l 1.917,-4.43 C 2.164,-5.944 2.173,-5.981 2.173,-6"
             style="fill:#191217;fill-opacity:1;fill-rule:nonzero;stroke:none"
             id="path98"
             inkscape:connector-curvature="0" /></g><g
           id="g100"
           transform="translate(458.7711,194.2315)"><path
             d="m 0,0 c 0.449,0.648 0.674,1.662 0.674,3.042 0,1.397 -0.228,2.433 -0.681,3.104 -0.454,0.67 -1.139,1.006 -2.056,1.006 -0.925,0 -1.62,-0.336 -2.083,-1.006 C -4.608,5.475 -4.84,4.439 -4.84,3.042 c 0,-1.371 0.23,-2.382 0.688,-3.035 0.458,-0.653 1.155,-0.979 2.089,-0.979 0.926,0 1.614,0.324 2.063,0.972 m -4.492,-1.59 c -0.677,0.411 -1.195,1.011 -1.556,1.798 -0.361,0.787 -0.542,1.731 -0.542,2.834 0,1.11 0.183,2.066 0.549,2.867 0.365,0.801 0.889,1.412 1.569,1.834 0.681,0.421 1.484,0.632 2.409,0.632 0.917,0 1.711,-0.211 2.382,-0.632 C 0.991,7.321 1.509,6.713 1.875,5.916 2.241,5.12 2.424,4.166 2.424,3.056 2.424,1.953 2.243,1.009 1.882,0.223 1.521,-0.564 1.002,-1.167 0.326,-1.583 -0.35,-2 -1.15,-2.208 -2.076,-2.208 c -0.936,0 -1.741,0.206 -2.416,0.618"
             style="fill:#191217;fill-opacity:1;fill-rule:nonzero;stroke:none"
             id="path102"
             inkscape:connector-curvature="0" /></g><g
           id="g104"
           transform="translate(463.4312,202.4668)"><path
             d="m 0,0 h 1.305 c 0.121,0 0.18,-0.069 0.18,-0.208 v -8.68 c 0,-0.055 0.012,-0.095 0.036,-0.118 0.022,-0.023 0.057,-0.035 0.104,-0.035 h 4.693 c 0.066,0 0.114,-0.012 0.147,-0.034 0.032,-0.024 0.048,-0.068 0.048,-0.132 v -0.917 c 0,-0.12 -0.065,-0.181 -0.195,-0.181 H 0.041 c -0.083,0 -0.144,0.019 -0.181,0.056 -0.037,0.037 -0.055,0.093 -0.055,0.167 v 9.874 C -0.195,-0.069 -0.13,0 0,0"
             style="fill:#191217;fill-opacity:1;fill-rule:nonzero;stroke:none"
             id="path106"
             inkscape:connector-curvature="0" /></g><g
           id="g108"
           transform="translate(471.9029,202.4668)"><path
             d="m 0,0 h 1.305 c 0.121,0 0.18,-0.069 0.18,-0.208 v -8.68 c 0,-0.055 0.012,-0.095 0.036,-0.118 0.022,-0.023 0.057,-0.035 0.104,-0.035 h 4.693 c 0.066,0 0.114,-0.012 0.147,-0.034 0.032,-0.024 0.048,-0.068 0.048,-0.132 v -0.917 c 0,-0.12 -0.065,-0.181 -0.195,-0.181 H 0.041 c -0.083,0 -0.144,0.019 -0.181,0.056 -0.037,0.037 -0.055,0.093 -0.055,0.167 v 9.874 C -0.195,-0.069 -0.13,0 0,0"
             style="fill:#191217;fill-opacity:1;fill-rule:nonzero;stroke:none"
             id="path110"
             inkscape:connector-curvature="0" /></g><g
           id="g112"
           transform="translate(485.4507,194.2315)"><path
             d="m 0,0 c 0.449,0.648 0.674,1.662 0.674,3.042 0,1.397 -0.228,2.433 -0.681,3.104 -0.454,0.67 -1.139,1.006 -2.056,1.006 -0.925,0 -1.62,-0.336 -2.083,-1.006 C -4.608,5.475 -4.84,4.439 -4.84,3.042 c 0,-1.371 0.23,-2.382 0.688,-3.035 0.458,-0.653 1.155,-0.979 2.089,-0.979 0.926,0 1.614,0.324 2.063,0.972 m -4.492,-1.59 c -0.677,0.411 -1.195,1.011 -1.556,1.798 -0.361,0.787 -0.542,1.731 -0.542,2.834 0,1.11 0.183,2.066 0.549,2.867 0.365,0.801 0.889,1.412 1.569,1.834 0.681,0.421 1.484,0.632 2.409,0.632 0.917,0 1.711,-0.211 2.382,-0.632 C 0.991,7.321 1.509,6.713 1.875,5.916 2.241,5.12 2.424,4.166 2.424,3.056 2.424,1.953 2.243,1.009 1.882,0.223 1.521,-0.564 1.002,-1.167 0.326,-1.583 -0.35,-2 -1.15,-2.208 -2.076,-2.208 c -0.936,0 -1.741,0.206 -2.416,0.618"
             style="fill:#191217;fill-opacity:1;fill-rule:nonzero;stroke:none"
             id="path114"
             inkscape:connector-curvature="0" /></g><g
           id="g116"
           transform="translate(493.0543,202.4668)"><path
             d="M 0,0 H 6.347 C 6.458,0 6.513,-0.06 6.513,-0.181 L 6.499,-1.055 c 0,-0.139 -0.069,-0.209 -0.208,-0.209 H 1.694 C 1.62,-1.264 1.566,-1.277 1.534,-1.305 1.502,-1.333 1.485,-1.379 1.485,-1.444 v -3.028 c 0,-0.111 0.061,-0.167 0.181,-0.167 h 3.486 c 0.112,0 0.166,-0.055 0.166,-0.166 V -5.722 C 5.318,-5.777 5.307,-5.816 5.284,-5.84 5.261,-5.863 5.217,-5.874 5.152,-5.874 h -3.5 c -0.111,0 -0.167,-0.056 -0.167,-0.167 v -4.041 c 0,-0.084 -0.018,-0.142 -0.055,-0.174 -0.037,-0.033 -0.102,-0.049 -0.195,-0.049 H 0.041 c -0.093,0 -0.155,0.016 -0.187,0.049 -0.033,0.032 -0.049,0.09 -0.049,0.174 v 9.874 C -0.195,-0.069 -0.13,0 0,0"
             style="fill:#191217;fill-opacity:1;fill-rule:nonzero;stroke:none"
             id="path118"
             inkscape:connector-curvature="0" /></g><g
           id="g120"
           transform="translate(506.8795,198.3428)"><path
             d="m 0,0 c 0.365,0.277 0.549,0.703 0.549,1.277 0,0.556 -0.17,0.972 -0.508,1.25 -0.338,0.278 -0.826,0.417 -1.465,0.417 H -3.632 C -3.715,2.944 -3.773,2.933 -3.806,2.909 -3.838,2.886 -3.854,2.842 -3.854,2.777 v -3 c 0,-0.13 0.05,-0.194 0.153,-0.194 h 2.041 c 0.741,0 1.294,0.139 1.66,0.417 M 2.173,-6 C 2.173,-6.047 2.154,-6.088 2.118,-6.125 2.081,-6.162 2.034,-6.181 1.979,-6.181 H 0.632 c -0.111,0 -0.195,0.065 -0.25,0.195 l -1.694,4.221 c -0.038,0.112 -0.154,0.167 -0.348,0.167 h -2.028 c -0.111,0 -0.166,-0.05 -0.166,-0.152 v -4.181 c 0,-0.092 -0.021,-0.157 -0.063,-0.194 -0.041,-0.037 -0.108,-0.056 -0.201,-0.056 h -1.181 c -0.083,0 -0.143,0.019 -0.18,0.056 -0.038,0.037 -0.056,0.093 -0.056,0.167 v 9.874 c 0,0.074 0.014,0.127 0.042,0.16 0.028,0.032 0.079,0.048 0.153,0.048 h 4.014 C -0.179,4.124 0.71,3.891 1.34,3.423 1.97,2.955 2.284,2.282 2.284,1.402 2.284,0.689 2.092,0.105 1.708,-0.348 1.323,-0.802 0.85,-1.116 0.284,-1.292 0.229,-1.311 0.21,-1.366 0.229,-1.459 l 1.917,-4.43 C 2.164,-5.944 2.173,-5.981 2.173,-6"
             style="fill:#191217;fill-opacity:1;fill-rule:nonzero;stroke:none"
             id="path122"
             inkscape:connector-curvature="0" /></g><g
           id="g124"
           transform="translate(511.1636,202.419)"><path
             d="m 0,0 c 0.028,0.032 0.079,0.048 0.153,0.048 h 6.472 c 0.111,0 0.166,-0.06 0.166,-0.181 L 6.777,-1.007 c 0,-0.139 -0.069,-0.209 -0.208,-0.209 H 1.848 c -0.14,0 -0.209,-0.06 -0.209,-0.18 v -2.861 c 0,-0.121 0.06,-0.18 0.18,-0.18 h 3.389 c 0.12,0 0.181,-0.056 0.181,-0.167 v -0.931 c 0,-0.102 -0.061,-0.152 -0.181,-0.152 H 1.806 c -0.112,0 -0.167,-0.051 -0.167,-0.154 V -8.84 c 0,-0.056 0.011,-0.096 0.035,-0.118 0.022,-0.023 0.057,-0.035 0.104,-0.035 h 4.986 c 0.074,0 0.125,-0.012 0.152,-0.034 0.028,-0.024 0.042,-0.068 0.042,-0.132 v -0.917 c 0,-0.12 -0.064,-0.181 -0.194,-0.181 h -6.57 c -0.092,0 -0.155,0.016 -0.187,0.049 -0.032,0.032 -0.049,0.09 -0.049,0.174 v 9.874 c 0,0.074 0.015,0.127 0.042,0.16"
             style="fill:#191217;fill-opacity:1;fill-rule:nonzero;stroke:none"
             id="path126"
             inkscape:connector-curvature="0" /></g><g
           id="g128"
           transform="translate(519.9966,202.419)"><path
             d="m 0,0 c 0.028,0.032 0.079,0.048 0.153,0.048 h 6.472 c 0.111,0 0.166,-0.06 0.166,-0.181 L 6.777,-1.007 c 0,-0.139 -0.069,-0.209 -0.208,-0.209 H 1.848 c -0.14,0 -0.209,-0.06 -0.209,-0.18 v -2.861 c 0,-0.121 0.06,-0.18 0.18,-0.18 h 3.389 c 0.12,0 0.181,-0.056 0.181,-0.167 v -0.931 c 0,-0.102 -0.061,-0.152 -0.181,-0.152 H 1.806 c -0.112,0 -0.167,-0.051 -0.167,-0.154 V -8.84 c 0,-0.056 0.011,-0.096 0.035,-0.118 0.022,-0.023 0.057,-0.035 0.104,-0.035 h 4.986 c 0.074,0 0.125,-0.012 0.152,-0.034 0.028,-0.024 0.042,-0.068 0.042,-0.132 v -0.917 c 0,-0.12 -0.064,-0.181 -0.194,-0.181 h -6.57 c -0.092,0 -0.155,0.016 -0.187,0.049 -0.032,0.032 -0.049,0.09 -0.049,0.174 v 9.874 c 0,0.074 0.015,0.127 0.042,0.16"
             style="fill:#191217;fill-opacity:1;fill-rule:nonzero;stroke:none"
             id="path130"
             inkscape:connector-curvature="0" /></g><g
           id="g132"
           transform="translate(528.983,202.4668)"><path
             d="m 0,0 h 1.305 c 0.121,0 0.18,-0.069 0.18,-0.208 v -8.68 c 0,-0.055 0.012,-0.095 0.036,-0.118 0.022,-0.023 0.057,-0.035 0.104,-0.035 h 4.693 c 0.066,0 0.114,-0.012 0.147,-0.034 0.032,-0.024 0.048,-0.068 0.048,-0.132 v -0.917 c 0,-0.12 -0.065,-0.181 -0.195,-0.181 H 0.041 c -0.083,0 -0.144,0.019 -0.181,0.056 -0.037,0.037 -0.055,0.093 -0.055,0.167 v 9.874 C -0.195,-0.069 -0.13,0 0,0"
             style="fill:#191217;fill-opacity:1;fill-rule:nonzero;stroke:none"
             id="path134"
             inkscape:connector-curvature="0" /></g><g
           id="g136"
           transform="translate(542.565,196.2315)"><path
             d="M 0,0 C 0.064,0 0.104,0.016 0.118,0.049 0.132,0.081 0.13,0.13 0.111,0.194 l -1.5,4.166 c -0.027,0.066 -0.06,0.098 -0.097,0.098 -0.037,0 -0.07,-0.037 -0.097,-0.111 L -3.125,0.181 -3.139,0.097 C -3.139,0.032 -3.097,0 -3.014,0 Z m -5.958,-3.902 0.028,0.125 3.541,9.791 c 0.028,0.083 0.065,0.14 0.112,0.173 0.046,0.033 0.111,0.048 0.194,0.048 h 1.402 c 0.176,0 0.292,-0.078 0.348,-0.235 l 3.514,-9.792 c 0.008,-0.019 0.013,-0.051 0.013,-0.097 0,-0.12 -0.05,-0.18 -0.152,-0.18 H 1.723 c -0.121,0 -0.2,0.055 -0.237,0.167 l -0.888,2.471 c -0.019,0.046 -0.037,0.079 -0.056,0.098 -0.019,0.019 -0.056,0.027 -0.111,0.027 h -3.847 c -0.084,0 -0.14,-0.037 -0.167,-0.111 l -0.902,-2.514 c -0.029,-0.092 -0.108,-0.138 -0.237,-0.138 h -1.069 c -0.111,0 -0.167,0.055 -0.167,0.167"
             style="fill:#191217;fill-opacity:1;fill-rule:nonzero;stroke:none"
             id="path138"
             inkscape:connector-curvature="0" /></g><g
           id="g140"
           transform="translate(555.4673,202.4668)"><path
             d="m 0,0 c 0.102,0 0.152,-0.06 0.152,-0.181 v -9.943 c 0,-0.056 -0.018,-0.1 -0.055,-0.132 -0.037,-0.033 -0.088,-0.049 -0.153,-0.049 h -0.903 c -0.074,0 -0.132,0.007 -0.173,0.021 -0.042,0.014 -0.086,0.054 -0.132,0.118 l -5.069,7.277 c -0.037,0.066 -0.072,0.093 -0.104,0.084 -0.033,-0.009 -0.049,-0.042 -0.049,-0.097 v -7.208 c 0,-0.13 -0.075,-0.195 -0.222,-0.195 h -0.986 c -0.149,0 -0.223,0.065 -0.223,0.195 v 9.902 c 0,0.074 0.017,0.127 0.049,0.16 C -7.836,-0.016 -7.782,0 -7.708,0 h 1.083 c 0.083,0 0.146,-0.012 0.188,-0.034 0.041,-0.024 0.081,-0.068 0.118,-0.132 l 4.861,-7.042 c 0.055,-0.064 0.097,-0.097 0.125,-0.097 0.055,0 0.083,0.042 0.083,0.125 v 6.986 c 0,0.13 0.064,0.194 0.194,0.194 z"
             style="fill:#191217;fill-opacity:1;fill-rule:nonzero;stroke:none"
             id="path142"
             inkscape:connector-curvature="0" /></g><g
           id="g144"
           transform="translate(563.9107,202.21)"><path
             d="M 0,0 C 0.564,-0.264 1.032,-0.618 1.402,-1.062 1.772,-1.507 2,-1.993 2.083,-2.521 2.092,-2.558 2.097,-2.604 2.097,-2.659 2.097,-2.706 2.088,-2.735 2.069,-2.75 2.051,-2.764 2.014,-2.775 1.958,-2.784 L 0.666,-2.867 H 0.625 c -0.056,0 -0.098,0.051 -0.125,0.152 -0.13,0.574 -0.392,1.032 -0.785,1.375 -0.394,0.343 -0.882,0.514 -1.465,0.514 -0.898,0 -1.581,-0.336 -2.049,-1.007 -0.468,-0.671 -0.701,-1.688 -0.701,-3.049 0,-1.351 0.233,-2.36 0.701,-3.027 0.468,-0.667 1.169,-1 2.105,-1 0.629,0 1.154,0.153 1.576,0.458 0.421,0.305 0.762,0.797 1.02,1.472 0.009,0.065 0.079,0.088 0.208,0.07 L 2.097,-7.146 C 2.181,-7.164 2.213,-7.242 2.194,-7.381 2.064,-7.826 1.831,-8.261 1.493,-8.687 1.154,-9.112 0.708,-9.47 0.152,-9.756 c -0.555,-0.287 -1.194,-0.431 -1.916,-0.431 -0.926,0 -1.727,0.217 -2.403,0.653 -0.676,0.435 -1.194,1.054 -1.556,1.854 -0.36,0.801 -0.541,1.739 -0.541,2.813 0,1.083 0.178,2.02 0.535,2.811 0.356,0.792 0.87,1.399 1.542,1.821 0.67,0.421 1.464,0.631 2.381,0.631 C -1.167,0.396 -0.565,0.264 0,0"
             style="fill:#191217;fill-opacity:1;fill-rule:nonzero;stroke:none"
             id="path146"
             inkscape:connector-curvature="0" /></g><g
           id="g148"
           transform="translate(567.9937,202.419)"><path
             d="m 0,0 c 0.028,0.032 0.079,0.048 0.153,0.048 h 6.472 c 0.111,0 0.166,-0.06 0.166,-0.181 L 6.777,-1.007 c 0,-0.139 -0.069,-0.209 -0.208,-0.209 H 1.848 c -0.14,0 -0.209,-0.06 -0.209,-0.18 v -2.861 c 0,-0.121 0.06,-0.18 0.18,-0.18 h 3.389 c 0.12,0 0.181,-0.056 0.181,-0.167 v -0.931 c 0,-0.102 -0.061,-0.152 -0.181,-0.152 H 1.806 c -0.112,0 -0.167,-0.051 -0.167,-0.154 V -8.84 c 0,-0.056 0.011,-0.096 0.035,-0.118 0.022,-0.023 0.057,-0.035 0.104,-0.035 h 4.986 c 0.074,0 0.125,-0.012 0.152,-0.034 0.028,-0.024 0.042,-0.068 0.042,-0.132 v -0.917 c 0,-0.12 -0.064,-0.181 -0.194,-0.181 h -6.57 c -0.092,0 -0.155,0.016 -0.187,0.049 -0.032,0.032 -0.049,0.09 -0.049,0.174 v 9.874 c 0,0.074 0.015,0.127 0.042,0.16"
             style="fill:#191217;fill-opacity:1;fill-rule:nonzero;stroke:none"
             id="path150"
             inkscape:connector-curvature="0" /></g><g
           id="g152"
           transform="translate(241.5357,239.9913)"><path
             d="m 0,0 c -0.263,0 -0.472,-0.089 -0.625,-0.264 -0.153,-0.174 -0.229,-0.372 -0.229,-0.59 v -18.474 c 0,-0.526 -0.143,-0.91 -0.428,-1.151 -0.285,-0.241 -0.735,-0.361 -1.348,-0.361 h -8.283 c -0.525,0 -0.899,0.109 -1.117,0.329 -0.22,0.219 -0.329,0.569 -0.329,1.052 V 26.69 c 0,0.832 0.35,1.249 1.051,1.249 h 9.402 c 0.7,0 1.052,-0.394 1.052,-1.183 V 9.927 c 0,-0.746 0.328,-1.118 0.986,-1.118 h 15.185 c 0.701,0 1.052,0.35 1.052,1.051 v 16.896 c 0,0.789 0.329,1.183 0.986,1.183 h 9.401 c 0.745,0 1.118,-0.417 1.118,-1.249 v -46.149 c 0,-0.921 -0.483,-1.381 -1.446,-1.381 h -8.35 c -0.614,0 -1.052,0.109 -1.314,0.329 -0.263,0.219 -0.395,0.614 -0.395,1.183 v 18.474 c 0,0.262 -0.077,0.469 -0.23,0.624 C 15.985,-0.077 15.755,0 15.449,0 Z"
             style="fill:#191217;fill-opacity:1;fill-rule:nonzero;stroke:none"
             id="path154"
             inkscape:connector-curvature="0" /></g><g
           id="g156"
           transform="translate(297.0191,240.1885)"><path
             d="m 0,0 c 0.482,0 0.789,0.054 0.921,0.164 0.131,0.108 0.197,0.361 0.197,0.756 0,1.14 -0.264,2.278 -0.789,3.419 -0.526,1.139 -1.293,2.081 -2.301,2.826 -1.008,0.745 -2.235,1.118 -3.681,1.118 -2.193,0 -3.989,-0.767 -5.391,-2.301 -1.403,-1.535 -2.082,-3.506 -2.038,-5.917 z m -10.748,-12.523 c 1.644,-1.513 3.691,-2.269 6.146,-2.269 1.579,0 3.035,0.339 4.373,1.02 1.335,0.678 2.683,1.807 4.042,3.384 0.174,0.175 0.35,0.264 0.526,0.264 0.132,0 0.35,-0.066 0.657,-0.197 l 4.733,-1.973 c 0.307,-0.131 0.46,-0.351 0.46,-0.657 0,-0.22 -0.087,-0.439 -0.262,-0.657 -2.104,-2.982 -4.362,-5.074 -6.772,-6.279 -2.41,-1.205 -5.413,-1.807 -9.006,-1.807 -3.375,0 -6.42,0.744 -9.137,2.235 -2.718,1.489 -4.844,3.56 -6.377,6.212 -1.534,2.651 -2.301,5.686 -2.301,9.105 0,3.681 0.789,6.936 2.366,9.762 1.578,2.827 3.715,5.007 6.41,6.541 2.696,1.534 5.642,2.302 8.842,2.302 3.33,0 6.288,-0.735 8.875,-2.203 2.585,-1.469 4.602,-3.582 6.048,-6.344 1.446,-2.761 2.17,-6.048 2.17,-9.86 0,-0.571 -0.056,-0.965 -0.165,-1.184 -0.109,-0.22 -0.427,-0.351 -0.953,-0.394 h -22.352 c -0.525,0 -0.789,-0.352 -0.789,-1.052 0,-2.455 0.822,-4.438 2.466,-5.949"
             style="fill:#191217;fill-opacity:1;fill-rule:nonzero;stroke:none"
             id="path158"
             inkscape:connector-curvature="0" /></g><g
           id="g160"
           transform="translate(310.8248,220.4659)"><path
             d="m 0,0 v 32.278 c 0,0.832 0.351,1.249 1.053,1.249 h 7.691 c 0.7,0 1.052,-0.372 1.052,-1.117 v -3.879 c 0,-0.176 0.043,-0.306 0.131,-0.394 0.088,-0.088 0.175,-0.131 0.263,-0.131 0.131,0 0.306,0.108 0.526,0.328 1.315,1.753 2.87,3.166 4.668,4.24 1.796,1.073 3.506,1.612 5.128,1.612 1.577,0 2.366,-0.373 2.366,-1.119 v -7.626 c 0,-0.306 -0.088,-0.547 -0.263,-0.722 -0.176,-0.176 -0.417,-0.22 -0.723,-0.132 -1.404,0.35 -2.937,0.526 -4.602,0.526 -1.096,0 -2.202,-0.274 -3.32,-0.822 -1.117,-0.548 -2.037,-1.271 -2.761,-2.169 -0.723,-0.899 -1.085,-1.808 -1.085,-2.728 V 0.197 c 0,-1.009 -0.569,-1.511 -1.709,-1.511 H 1.381 C 0.461,-1.314 0,-0.877 0,0"
             style="fill:#191217;fill-opacity:1;fill-rule:nonzero;stroke:none"
             id="path162"
             inkscape:connector-curvature="0" /></g><g
           id="g164"
           transform="translate(336.5289,219.4473)"><path
             d="m 0,0 c -0.22,0.197 -0.329,0.536 -0.329,1.019 v 32.278 c 0,0.832 0.35,1.249 1.053,1.249 h 7.954 c 0.657,0 0.986,-0.372 0.986,-1.117 v -3.222 c 0,-0.351 0.108,-0.525 0.328,-0.525 0.132,0 0.285,0.087 0.461,0.262 1.796,1.709 3.593,3.013 5.391,3.912 1.796,0.898 3.702,1.348 5.718,1.348 3.2,0 5.73,-0.943 7.593,-2.827 1.863,-1.885 2.794,-4.404 2.794,-7.561 V 1.282 c 0,-1.052 -0.525,-1.578 -1.577,-1.578 h -7.297 c -0.483,0 -0.811,0.099 -0.986,0.296 -0.176,0.197 -0.263,0.536 -0.263,1.019 v 22.22 c 0,1.49 -0.406,2.64 -1.217,3.451 -0.811,0.811 -2.005,1.216 -3.583,1.216 -1.314,0 -2.53,-0.328 -3.648,-0.986 -1.117,-0.657 -2.312,-1.688 -3.583,-3.089 V 1.216 C 9.795,0.69 9.664,0.306 9.4,0.065 9.138,-0.176 8.699,-0.296 8.086,-0.296 H 1.052 C 0.569,-0.296 0.219,-0.197 0,0"
             style="fill:#191217;fill-opacity:1;fill-rule:nonzero;stroke:none"
             id="path166"
             inkscape:connector-curvature="0" /></g><g
           id="g168"
           transform="translate(393.065,235.5206)"><path
             d="M 0,0 C -0.132,0.175 -0.395,0.263 -0.789,0.263 L -2.63,0.132 C -5.172,0 -7.419,-0.603 -9.368,-1.677 c -1.951,-1.074 -2.926,-2.552 -2.926,-4.436 0,-1.316 0.46,-2.357 1.381,-3.123 0.92,-0.768 2.19,-1.151 3.812,-1.151 2.016,0 3.725,0.592 5.128,1.775 1.447,1.139 2.17,2.301 2.17,3.484 v 4.274 C 0.197,-0.46 0.131,-0.176 0,0 m 4.272,28.005 c 0.088,-0.263 0.132,-0.483 0.132,-0.657 0,-0.483 -0.373,-0.855 -1.118,-1.118 l -15.185,-4.076 c -0.176,-0.044 -0.373,-0.065 -0.592,-0.065 -0.263,0 -0.46,0.055 -0.592,0.164 -0.131,0.109 -0.263,0.317 -0.394,0.625 l -0.789,2.301 -0.131,0.525 c 0,0.395 0.174,0.657 0.526,0.789 l 15.515,6.509 c 0.086,0.043 0.197,0.065 0.328,0.065 0.394,0 0.657,-0.219 0.789,-0.657 z m -15.711,-45.031 c -3.288,0 -5.895,0.887 -7.823,2.662 -1.929,1.775 -2.892,4.086 -2.892,6.935 0,3.682 1.686,6.64 5.061,8.875 3.374,2.236 8.021,3.419 13.937,3.55 l 2.367,0.197 c 0.263,0 0.493,0.077 0.69,0.231 0.198,0.153 0.296,0.383 0.296,0.69 v 1.38 c 0,1.71 -0.483,3.025 -1.446,3.944 -0.965,0.921 -2.346,1.381 -4.142,1.381 -3.068,0 -5.347,-1.314 -6.837,-3.944 -0.175,-0.438 -0.46,-0.657 -0.855,-0.657 -0.22,0 -0.417,0.021 -0.591,0.065 l -6.574,1.512 c -0.395,0.088 -0.592,0.329 -0.592,0.724 0,0.262 0.087,0.591 0.263,0.986 1.052,2.541 2.926,4.447 5.621,5.719 2.695,1.27 6.037,1.907 10.025,1.907 5.215,0 8.984,-0.954 11.307,-2.86 2.323,-1.907 3.484,-4.614 3.484,-8.12 v -23.074 c 0,-0.526 -0.088,-0.898 -0.262,-1.117 -0.176,-0.221 -0.504,-0.329 -0.987,-0.329 h -6.77 c -0.44,0 -0.757,0.153 -0.954,0.46 -0.198,0.306 -0.34,0.766 -0.427,1.381 l -0.065,1.446 c -0.045,0.394 -0.221,0.592 -0.527,0.592 -0.176,0 -0.504,-0.176 -0.986,-0.527 -2.893,-2.673 -6.333,-4.009 -10.321,-4.009"
             style="fill:#191217;fill-opacity:1;fill-rule:nonzero;stroke:none"
             id="path170"
             inkscape:connector-curvature="0" /></g><g
           id="g172"
           transform="translate(407.4605,219.4473)"><path
             d="m 0,0 c -0.22,0.197 -0.329,0.536 -0.329,1.019 v 32.278 c 0,0.832 0.35,1.249 1.053,1.249 h 7.954 c 0.657,0 0.986,-0.372 0.986,-1.117 v -3.222 c 0,-0.351 0.108,-0.525 0.328,-0.525 0.132,0 0.285,0.087 0.461,0.262 1.796,1.709 3.593,3.013 5.391,3.912 1.796,0.898 3.702,1.348 5.718,1.348 3.2,0 5.73,-0.943 7.593,-2.827 1.863,-1.885 2.794,-4.404 2.794,-7.561 V 1.282 c 0,-1.052 -0.525,-1.578 -1.577,-1.578 h -7.297 c -0.483,0 -0.811,0.099 -0.986,0.296 -0.176,0.197 -0.263,0.536 -0.263,1.019 v 22.22 c 0,1.49 -0.406,2.64 -1.217,3.451 -0.811,0.811 -2.005,1.216 -3.583,1.216 -1.314,0 -2.53,-0.328 -3.648,-0.986 -1.117,-0.657 -2.312,-1.688 -3.583,-3.089 V 1.216 C 9.795,0.69 9.664,0.306 9.4,0.065 9.138,-0.176 8.699,-0.296 8.086,-0.296 H 1.052 C 0.569,-0.296 0.219,-0.197 0,0"
             style="fill:#191217;fill-opacity:1;fill-rule:nonzero;stroke:none"
             id="path174"
             inkscape:connector-curvature="0" /></g><g
           id="g176"
           transform="translate(456.6334,267.9307)"><path
             d="m 0,0 h 32.607 c 0.658,0 0.987,-0.373 0.987,-1.118 l -0.067,-5.916 c 0,-0.921 -0.438,-1.381 -1.314,-1.381 H 11.702 c -0.438,0 -0.756,-0.088 -0.953,-0.263 -0.197,-0.176 -0.296,-0.438 -0.296,-0.789 v -10.189 c 0,-0.702 0.328,-1.052 0.986,-1.052 h 14.266 c 0.7,0 1.052,-0.352 1.052,-1.052 v -6.246 c 0,-0.614 -0.329,-0.92 -0.986,-0.92 H 11.373 c -0.614,0 -0.92,-0.285 -0.92,-0.854 v -17.488 c 0,-0.569 -0.132,-0.963 -0.394,-1.182 -0.263,-0.221 -0.702,-0.329 -1.315,-0.329 H 0.395 c -0.526,0 -0.899,0.108 -1.118,0.329 -0.219,0.219 -0.329,0.568 -0.329,1.052 V -1.249 C -1.052,-0.417 -0.701,0 0,0"
             style="fill:#191217;fill-opacity:1;fill-rule:nonzero;stroke:none"
             id="path178"
             inkscape:connector-curvature="0" /></g><g
           id="g180"
           transform="translate(512.0523,229.67)"><path
             d="m 0,0 v 22.812 c 0,1.007 0.568,1.511 1.709,1.511 h 7.1 c 0.526,0 0.887,-0.109 1.085,-0.328 0.197,-0.22 0.295,-0.57 0.295,-1.052 L 10.058,-9.335 c 0,-0.352 -0.099,-0.636 -0.296,-0.854 -0.198,-0.221 -0.449,-0.33 -0.756,-0.33 H 1.183 c -0.658,0 -0.986,0.373 -0.986,1.118 v 3.221 c 0,0.263 -0.066,0.416 -0.197,0.46 -0.132,0.043 -0.308,-0.022 -0.526,-0.197 -1.841,-1.885 -3.661,-3.232 -5.456,-4.043 -1.798,-0.811 -3.747,-1.216 -5.852,-1.216 -2.937,0 -5.347,0.953 -7.23,2.86 -1.886,1.906 -2.828,4.48 -2.828,7.724 v 23.338 c 0,1.052 0.526,1.577 1.579,1.577 h 7.296 c 0.832,0 1.249,-0.46 1.249,-1.38 V 0.854 c 0,-1.446 0.416,-2.596 1.249,-3.451 0.832,-0.854 1.95,-1.282 3.353,-1.282 2.41,0 4.799,1.292 7.166,3.879"
             style="fill:#191217;fill-opacity:1;fill-rule:nonzero;stroke:none"
             id="path182"
             inkscape:connector-curvature="0" /></g><g
           id="g184"
           transform="translate(527.106,219.4473)"><path
             d="m 0,0 c -0.22,0.197 -0.329,0.536 -0.329,1.019 v 32.278 c 0,0.832 0.35,1.249 1.053,1.249 h 7.954 c 0.657,0 0.986,-0.372 0.986,-1.117 v -3.222 c 0,-0.351 0.108,-0.525 0.328,-0.525 0.132,0 0.285,0.087 0.461,0.262 1.796,1.709 3.593,3.013 5.391,3.912 1.796,0.898 3.702,1.348 5.718,1.348 3.2,0 5.73,-0.943 7.593,-2.827 1.863,-1.885 2.794,-4.404 2.794,-7.561 V 1.282 c 0,-1.052 -0.525,-1.578 -1.577,-1.578 h -7.297 c -0.483,0 -0.811,0.099 -0.986,0.296 -0.176,0.197 -0.263,0.536 -0.263,1.019 v 22.22 c 0,1.49 -0.406,2.64 -1.217,3.451 -0.811,0.811 -2.005,1.216 -3.583,1.216 -1.314,0 -2.53,-0.328 -3.648,-0.986 -1.117,-0.657 -2.312,-1.688 -3.583,-3.089 V 1.216 C 9.795,0.69 9.664,0.306 9.4,0.065 9.138,-0.176 8.699,-0.296 8.086,-0.296 H 1.052 C 0.569,-0.296 0.219,-0.197 0,0"
             style="fill:#191217;fill-opacity:1;fill-rule:nonzero;stroke:none"
             id="path186"
             inkscape:connector-curvature="0" /></g><g
           id="g188"
           transform="translate(585.4166,240.1885)"><path
             d="m 0,0 c 0.482,0 0.789,0.054 0.921,0.164 0.131,0.108 0.197,0.361 0.197,0.756 0,1.14 -0.264,2.278 -0.789,3.419 -0.526,1.139 -1.293,2.081 -2.301,2.826 -1.008,0.745 -2.235,1.118 -3.681,1.118 -2.193,0 -3.989,-0.767 -5.391,-2.301 -1.403,-1.535 -2.082,-3.506 -2.038,-5.917 z m -10.748,-12.523 c 1.644,-1.513 3.691,-2.269 6.146,-2.269 1.579,0 3.035,0.339 4.373,1.02 1.335,0.678 2.683,1.807 4.042,3.384 0.174,0.175 0.35,0.264 0.526,0.264 0.132,0 0.35,-0.066 0.657,-0.197 l 4.733,-1.973 c 0.307,-0.131 0.46,-0.351 0.46,-0.657 0,-0.22 -0.087,-0.439 -0.262,-0.657 -2.104,-2.982 -4.362,-5.074 -6.772,-6.279 -2.41,-1.205 -5.413,-1.807 -9.006,-1.807 -3.375,0 -6.42,0.744 -9.137,2.235 -2.718,1.489 -4.844,3.56 -6.377,6.212 -1.534,2.651 -2.301,5.686 -2.301,9.105 0,3.681 0.789,6.936 2.366,9.762 1.578,2.827 3.715,5.007 6.41,6.541 2.696,1.534 5.642,2.302 8.842,2.302 3.33,0 6.288,-0.735 8.875,-2.203 2.585,-1.469 4.602,-3.582 6.048,-6.344 1.446,-2.761 2.17,-6.048 2.17,-9.86 0,-0.571 -0.056,-0.965 -0.165,-1.184 -0.109,-0.22 -0.427,-0.351 -0.953,-0.394 h -22.352 c -0.525,0 -0.789,-0.352 -0.789,-1.052 0,-2.455 0.822,-4.438 2.466,-5.949"
             style="fill:#191217;fill-opacity:1;fill-rule:nonzero;stroke:none"
             id="path190"
             inkscape:connector-curvature="0" /></g><g
           id="g192"
           transform="translate(613.0269,248.4717)"><path
             d="m 0,0 c -1.666,0 -3.047,-0.318 -4.142,-0.953 -1.095,-0.637 -1.643,-1.502 -1.643,-2.597 0,-0.614 0.252,-1.174 0.756,-1.677 0.504,-0.504 1.479,-0.931 2.925,-1.282 L 5.457,-8.35 c 3.461,-0.833 6.004,-2.159 7.625,-3.976 1.621,-1.82 2.433,-3.956 2.433,-6.41 0,-3.463 -1.447,-6.202 -4.339,-8.218 -2.893,-2.016 -6.684,-3.024 -11.373,-3.024 -3.77,0 -7.034,0.668 -9.795,2.005 -2.761,1.336 -4.712,3.078 -5.851,5.227 -0.219,0.306 -0.329,0.592 -0.329,0.854 0,0.306 0.153,0.526 0.46,0.658 l 4.471,2.3 c 0.35,0.175 0.657,0.263 0.92,0.263 0.263,0 0.504,-0.109 0.723,-0.328 0.963,-1.359 2.137,-2.443 3.517,-3.254 1.381,-0.811 3.21,-1.217 5.489,-1.217 2.06,0 3.737,0.307 5.029,0.921 1.292,0.613 1.94,1.512 1.94,2.695 0,0.79 -0.329,1.447 -0.986,1.972 -0.658,0.527 -1.775,0.986 -3.353,1.381 l -6.771,1.446 c -6.663,1.447 -9.993,4.755 -9.993,9.927 0,2.19 0.602,4.142 1.808,5.851 1.205,1.709 2.926,3.046 5.161,4.01 2.235,0.963 4.864,1.447 7.889,1.447 3.198,0 6.036,-0.592 8.513,-1.776 2.475,-1.183 4.262,-2.674 5.358,-4.47 0.263,-0.351 0.394,-0.658 0.394,-0.92 0,-0.263 -0.154,-0.483 -0.459,-0.658 l -4.734,-2.3 C 9.072,-4.033 8.896,-4.076 8.678,-4.076 8.283,-4.076 7.955,-3.901 7.691,-3.55 5.895,-1.184 3.33,0 0,0"
             style="fill:#191217;fill-opacity:1;fill-rule:nonzero;stroke:none"
             id="path194"
             inkscape:connector-curvature="0" /></g><g
           id="g196"
           transform="translate(487.4732,345.5318)"><path
             d="m 0,0 c 0,-33.642 -27.272,-60.915 -60.915,-60.915 -33.642,0 -60.914,27.273 -60.914,60.915 0,33.642 27.272,60.915 60.914,60.915 C -27.272,60.915 0,33.642 0,0"
             style="fill:#2f4890;fill-opacity:1;fill-rule:nonzero;stroke:none"
             id="path198"
             inkscape:connector-curvature="0" /></g><g
           id="g200"
           transform="translate(414.9127,351.2271)"><path
             d="M 0,0 H -17.935 V 17.934 L -29.325,6.163 v -35.488 h 11.39 v 17.934 H 0 V -29.325 H 11.391 V 17.934 H 0 Z"
             style="fill:#ffffff;fill-opacity:1;fill-rule:nonzero;stroke:none"
             id="path202"
             inkscape:connector-curvature="0" /></g><g
           id="g204"
           transform="translate(469.4361,357.7705)"><path
             d="m 0,0 v 11.391 h -38.044 v -47.259 h 11.391 v 17.934 h 14.882 L 0,-6.543 H -26.653 V 0 Z"
             style="fill:#ffffff;fill-opacity:1;fill-rule:nonzero;stroke:none"
             id="path206"
             inkscape:connector-curvature="0" /></g></g></g></g></svg>